<svg viewBox="0 0 21 20" xmlns="http://www.w3.org/2000/svg"><path d="M10.957 1c1.404 0 2.74.327 3.94.911.188.086.377.19.564.293l-.822.739-1.232-1.29-2.124 1.892-1.25-1.359-3.906 3.525 2.5 2.768-.975.86 2.466 2.767-.976.86 3.529 3.937 2.088-1.926 1.816 2.064c-.36.275-.754.55-1.181.79A8.9 8.9 0 0 1 10.974 19C6.025 19 2 14.96 2 9.992 1.983 5.058 6.008 1 10.957 1M9.313 9.442l2.14-1.926 1.92 2.149-2.142 1.926zm1.524 3.713 2.124-1.942 1.935 2.149-2.14 1.925zM7.79 5.78l2.14-1.926 1.919 2.15-2.141 1.925zm3.922-1.032 1.593-1.444 1.439 1.599-1.593 1.461zm2.843 6.62 1.592-1.445 1.44 1.616-1.594 1.445zm1.404 3.249 1.593-1.445 1.438 1.6-1.592 1.46zm.651-7.428 1.062-.963.959 1.067-1.062.962zm-1.37-3.18 1.062-.98.96 1.083-1.063.963zm2.723 6.361 1.062-.963.976 1.066-1.079.963zm-4.778-2.39 1.593-1.444 1.438 1.599-1.592 1.444z"/></svg>